{
  "asset": {
    "version": "2.0",
    "generator": "Codex simple outward resource generator"
  },
  "scene": 0,
  "scenes": [
    {
      "nodes": [
        0
      ]
    }
  ],
  "nodes": [
    {
      "mesh": 0,
      "name": "linemate"
    }
  ],
  "meshes": [
    {
      "name": "linemate",
      "primitives": [
        {
          "attributes": {
            "POSITION": 0,
            "NORMAL": 1
          },
          "mode": 4,
          "material": 0
        }
      ]
    }
  ],
  "materials": [
    {
      "name": "linemate_mat",
      "pbrMetallicRoughness": {
        "baseColorFactor": [
          0.3,
          0.72,
          1,
          1
        ],
        "metallicFactor": 0.05,
        "roughnessFactor": 0.72
      }
    }
  ],
  "buffers": [
    {
      "byteLength": 576,
      "uri": "data:application/octet-stream;base64,"
    }
  ],
  "bufferViews": [
    {
      "buffer": 0,
      "byteOffset": 0,
      "byteLength": 288,
      "target": 34962
    },
    {
      "buffer": 0,
      "byteOffset": 288,
      "byteLength": 288,
      "target": 34962
    }
  ],
  "accessors": [
    {
      "bufferView": 0,
      "componentType": 5126,
      "count": 24,
      "type": "VEC3",
      "min": [
        -0.15,
        -0.08399999999999999,
        -0.15
      ],
      "max": [
        0.15,
        0.24,
        0.15
      ]
    },
    {
      "bufferView": 1,
      "componentType": 5126,
      "count": 24,
      "type": "VEC3"
    }
  ]
}