{"asset":{"version":"2.0","generator":"Zappy recolored slime level variant"},"scenes":[{"nodes":[4],"name":"blockbench_export"}],"scene":0,"nodes":[{"translation":[0,0.03125,0],"name":"cube","mesh":0,"skin":0},{"translation":[-0.03125,-0.03125,0],"name":"group2","children":[0]},{"name":"cube","mesh":1,"skin":0},{"translation":[-0.03125,-0.03125,0],"name":"group3","children":[2]},{"name":"group","children":[1,3]}],"bufferViews":[{"buffer":0,"byteOffset":0,"byteLength":288,"target":34962,"byteStride":12},{"buffer":0,"byteOffset":288,"byteLength":288,"target":34962,"byteStride":12},{"buffer":0,"byteOffset":576,"byteLength":192,"target":34962,"byteStride":8},{"buffer":0,"byteOffset":768,"byteLength":72,"target":34963},{"buffer":0,"byteOffset":840,"byteLength":288,"target":34962,"byteStride":12},{"buffer":0,"byteOffset":1128,"byteLength":288,"target":34962,"byteStride":12},{"buffer":0,"byteOffset":1416,"byteLength":192,"target":34962,"byteStride":8},{"buffer":0,"byteOffset":1608,"byteLength":72,"target":34963},{"buffer":0,"byteOffset":1680,"byteLength":72},{"buffer":0,"byteOffset":1752,"byteLength":288},{"buffer":0,"byteOffset":2040,"byteLength":76},{"buffer":0,"byteOffset":2116,"byteLength":228},{"buffer":0,"byteOffset":2344,"byteLength":76},{"buffer":0,"byteOffset":2420,"byteLength":304},{"buffer":0,"byteOffset":2724,"byteLength":64},{"buffer":0,"byteOffset":2788,"byteLength":256},{"buffer":0,"byteOffset":3044,"byteLength":64},{"buffer":0,"byteOffset":3108,"byteLength":192},{"buffer":0,"byteOffset":3300,"byteLength":64},{"buffer":0,"byteOffset":3364,"byteLength":192},{"buffer":0,"byteOffset":3556,"byteLength":64},{"buffer":0,"byteOffset":3620,"byteLength":256},{"buffer":0,"byteOffset":3876,"byteLength":68},{"buffer":0,"byteOffset":3944,"byteLength":204},{"buffer":0,"byteOffset":4148,"byteLength":96,"target":34962},{"buffer":0,"byteOffset":4244,"byteLength":384,"target":34962},{"buffer":0,"byteOffset":4628,"byteLength":96,"target":34962},{"buffer":0,"byteOffset":4724,"byteLength":384,"target":34962}],"buffers":[{"byteLength":5108,"uri":"data:application/octet-stream;base64,"}],"accessors":[{"bufferView":0,"componentType":5126,"count":24,"max":[0.3125,0.53125,0.25],"min":[-0.25,0,-0.3125],"type":"VEC3"},{"bufferView":1,"componentType":5126,"count":24,"max":[1,1,1],"min":[-1,-1,-1],"type":"VEC3"},{"bufferView":2,"componentType":5126,"count":24,"max":[1,1],"min":[0,0],"type":"VEC2"},{"bufferView":3,"componentType":5123,"count":36,"max":[23],"min":[0],"type":"SCALAR"},{"bufferView":4,"componentType":5126,"count":24,"max":[0.25,0.5,0.1875],"min":[-0.1875,0.0625,-0.25],"type":"VEC3"},{"bufferView":5,"componentType":5126,"count":24,"max":[1,1,1],"min":[-1,-1,-1],"type":"VEC3"},{"bufferView":6,"componentType":5126,"count":24,"max":[1,1],"min":[0,0],"type":"VEC2"},{"bufferView":7,"componentType":5123,"count":36,"max":[23],"min":[0],"type":"SCALAR"},{"bufferView":8,"componentType":5126,"count":18,"max":[1.125],"min":[0],"type":"SCALAR"},{"bufferView":9,"componentType":5126,"count":18,"max":[0.0007841739570721984,0.028129614889621735,0.1736481785774231,1],"min":[-0.004420663230121136,-0.0020878848154097795,-0.19509032368659973,0.9807852506637573],"type":"VEC4"},{"bufferView":10,"componentType":5126,"count":19,"max":[1.125],"min":[0],"type":"SCALAR"},{"bufferView":11,"componentType":5126,"count":19,"max":[0.18904320895671844,1.326968789100647,0],"min":[-0.25,0,0],"type":"VEC3"},{"bufferView":12,"componentType":5126,"count":19,"max":[1.125],"min":[0],"type":"SCALAR"},{"bufferView":13,"componentType":5126,"count":19,"max":[0.08715574443340302,0,0,1],"min":[-0.027020584791898727,0,0,0.9961947202682495],"type":"VEC4"},{"bufferView":14,"componentType":5126,"count":16,"max":[1],"min":[0],"type":"SCALAR"},{"bufferView":15,"componentType":5126,"count":16,"max":[0.06528113782405853,0.003992765676230192,0.06091782823204994,1],"min":[-0.042182765901088715,-0.01110595278441906,-0.13472284376621246,0.9899227619171143],"type":"VEC4"},{"bufferView":16,"componentType":5126,"count":16,"max":[1],"min":[0],"type":"SCALAR"},{"bufferView":17,"componentType":5126,"count":16,"max":[0,0.15781250596046448,0],"min":[0,0,0],"type":"VEC3"},{"bufferView":18,"componentType":5126,"count":16,"max":[1],"min":[0],"type":"SCALAR"},{"bufferView":19,"componentType":5126,"count":16,"max":[1,1.537500023841858,1.212499976158142],"min":[1,0.8620471954345703,0.7825000286102295],"type":"VEC3"},{"bufferView":20,"componentType":5126,"count":16,"max":[1],"min":[0],"type":"SCALAR"},{"bufferView":21,"componentType":5126,"count":16,"max":[0.6258885264396667,0.881449282169342,0.7118088603019714,0.9940563440322876],"min":[-0.1782011240720749,-0.7069385051727295,-0.2141387164592743,-0.9940563440322876],"type":"VEC4"},{"bufferView":22,"componentType":5126,"count":17,"max":[1],"min":[0],"type":"SCALAR"},{"bufferView":23,"componentType":5126,"count":17,"max":[0,0.581250011920929,0],"min":[0,0,0],"type":"VEC3"},{"bufferView":24,"componentType":5121,"count":24,"type":"VEC4"},{"bufferView":25,"componentType":5126,"count":24,"type":"VEC4"},{"bufferView":26,"componentType":5121,"count":24,"type":"VEC4"},{"bufferView":27,"componentType":5126,"count":24,"type":"VEC4"}],"materials":[{"pbrMetallicRoughness":{"metallicFactor":0,"roughnessFactor":1,"baseColorTexture":{"index":0},"baseColorFactor":[1,1,1,1]},"alphaMode":"MASK","alphaCutoff":0.05,"doubleSided":true},{"pbrMetallicRoughness":{"metallicFactor":0,"roughnessFactor":1,"baseColorTexture":{"index":1},"baseColorFactor":[1,1,1,1]},"alphaMode":"MASK","alphaCutoff":0.05,"doubleSided":true}],"textures":[{"sampler":0,"source":0,"name":"slimt.png"},{"sampler":1,"source":1,"name":"slimt2.png"}],"samplers":[{"magFilter":9728,"minFilter":9728,"wrapS":33071,"wrapT":33071},{"magFilter":9728,"minFilter":9728,"wrapS":33071,"wrapT":33071}],"images":[{"mimeType":"image/png","uri":"data:image/png;base64,"},{"mimeType":"image/png","uri":"data:image/png;base64,"}],"meshes":[{"primitives":[{"mode":4,"attributes":{"POSITION":0,"NORMAL":1,"TEXCOORD_0":2,"JOINTS_0":24,"WEIGHTS_0":25},"indices":3,"material":0}]},{"primitives":[{"mode":4,"attributes":{"POSITION":4,"NORMAL":5,"TEXCOORD_0":6,"JOINTS_0":26,"WEIGHTS_0":27},"indices":7,"material":1}]}],"animations":[{"name":"jump","samplers":[{"input":8,"output":9,"interpolation":"LINEAR"},{"input":10,"output":11,"interpolation":"LINEAR"},{"input":12,"output":13,"interpolation":"LINEAR"}],"channels":[{"sampler":0,"target":{"node":4,"path":"rotation"}},{"sampler":1,"target":{"node":4,"path":"translation"}},{"sampler":2,"target":{"node":1,"path":"rotation"}}]},{"name":"idle","samplers":[{"input":14,"output":15,"interpolation":"LINEAR"},{"input":16,"output":17,"interpolation":"LINEAR"},{"input":18,"output":19,"interpolation":"LINEAR"}],"channels":[{"sampler":0,"target":{"node":4,"path":"rotation"}},{"sampler":1,"target":{"node":4,"path":"translation"}},{"sampler":2,"target":{"node":4,"path":"scale"}}]},{"name":"turn","samplers":[{"input":20,"output":21,"interpolation":"LINEAR"},{"input":22,"output":23,"interpolation":"LINEAR"}],"channels":[{"sampler":0,"target":{"node":4,"path":"rotation"}},{"sampler":1,"target":{"node":4,"path":"translation"}}]}],"skins":[{"name":"raylib_armature","joints":[4,1,0,3,2],"skeleton":4}],"extras":{"zappyPlayerLevel":6,"color":[255,92,168]}}